{"title":"Ashby.2015.BRRip.720p.x264.AAC-PRiSTiNE [P2PDL]","uid":13162942,"size":690597473,"categoryP":"video","categoryS":"hd___movies","magnet":"?xt=urn:btih:adf6253d5743f30df145becf9d9e31e78406cb45&amp;dn=Ashby.2015.BRRip.720p.x264.AAC-PRiSTiNE+%5BP2PDL%5D&amp;tr=udp%3A%2F%2Ftracker.leechers-paradise.org%3A6969&amp;tr=udp%3A%2F%2Fzer0day.ch%3A1337&amp;tr=udp%3A%2F%2Fopen.demonii.com%3A1337&amp;tr=udp%3A%2F%2Ftracker.coppersurfer.tk%3A6969&amp;tr=udp%3A%2F%2Fexodus.desync.com%3A6969","seeders":0,"leechers":1,"uploader":"VYTOP2PDL","files":7,"time":1452176077,"description":"____    ____ ____    ____ .___________.  ______   \r\n     /   /      /   / |           | /  __    \r\n    /   /      /   /  `---|  |----`|  |  |  | \r\n        /     _    _/       |  |     |  |  |  | \r\n       /        |  |         |  |     |  `--'  | \r\n    __/         |__|         |__|      ______/  \r\n                                                  \r\nPresenting Small Encodes with quality for years!\r\n                                                                                                   \r\n                                                                                                   \r\n\r\nExperimenter.2015.BRRip.720p.x264.AAC-PRiSTiNE\r\n\r\n\r\nGenre: Comedy, Drama, Romance \nhttp://www.imdb.com/title/tt3774466/\r\n\r\n\r\nFormat                                   : MPEG-4\r\nFile size                                : 651 MiB\r\nDuration                                 : 1h 43mn\r\nOverall bit rate                         : 884 Kbps\r\n\r\nVideo\r\nFormat                                   : AVC\r\nBit rate                                 : 801 Kbps\r\nWidth                                    : 1 264 pixels\r\nHeight                                   : 528 pixels\r\nDisplay aspect ratio                     : 2.40:1\r\nFrame rate mode                          : Constant\r\nFrame rate                               : 23.976  fps\r\nBit depth                                : 8 bits\r\nStream size                              : 590 MiB (91%)\r\nWriting library                          : x264\r\n\r\nAudio\r\nFormat                                   : AAC\r\nBit rate mode                            : Variable\r\nBit rate                                 : 79.9 Kbps\r\nChannel(s)                               : 2 channels\r\nChannel positions                        : Front: L R\r\nSampling rate                            : 48.0 KHz\r\nStream size                              : 58.8 MiB (9%)\r\nLanguage                                 : English\r\n\r\nSubtitle                                 : Yes (English)\r\n\r\nScreen Shot: (Click to view)\r\n \nhttp://ititli.com/DF \nhttp://ititli.com/DJ \nhttp://ititli.com/D5 \nhttp://ititli.com/DB \nhttp://ititli.com/DN \nhttp://ititli.com/DP \nhttp://ititli.com/Df \nhttp://ititli.com/Du \nhttp://ititli.com/Dv\r\n\r\n----------------------------------------------------------------------------------------------------\r\n\r\n\r\nEncoder Notes: Looking For Early Access To Anything You Can Provide WEBDL, DVDScr, DVDR, BluRay,\r\nDirect Audio, Music Releases and Seedboxes. If You Got anything to offer please contact us.\r\n\r\nSupport us by donating BC - 1FgwdzPsd1y25Gea8wP1qni35uGCtmkRCD\r\n\r\n\r\nSend some love!\r\nFind us and join us!\r\n\r\nTry all new image sharing/hosting service at:       \nhttp://ititli.com/","torrent":{"xt":"urn:btih:adf6253d5743f30df145becf9d9e31e78406cb45","amp;dn":"Ashby.2015.BRRip.720p.x264.AAC-PRiSTiNE+%5BP2PDL%5D","amp;tr":["udp%3A%2F%2Ftracker.leechers-paradise.org%3A6969","udp%3A%2F%2Fzer0day.ch%3A1337","udp%3A%2F%2Fopen.demonii.com%3A1337","udp%3A%2F%2Ftracker.coppersurfer.tk%3A6969","udp%3A%2F%2Fexodus.desync.com%3A6969"],"infoHash":"adf6253d5743f30df145becf9d9e31e78406cb45","infoHashBuffer":{"type":"Buffer","data":[173,246,37,61,87,67,243,13,241,69,190,207,157,158,49,231,132,6,203,69]},"announce":[],"urlList":[]}}